<svg width="48" height="48" viewBox="0 0 48 48" fill="none" xmlns="http://www.w3.org/2000/svg">
<path d="M41.25 8.25H27.3L24.15 14.55H6.59998V39.75H44.4V8.25H41.25ZM41.25 14.55H28.95L30.6 11.4H41.25V14.55Z" fill="#55BFA0"/>
<path d="M46.5 23.6665V46.4995H15V23.665H46.5" fill="#2DCC9F"/>
<path d="M40.011 26.7002C39.4297 26.5772 38.8235 26.667 38.3029 26.9533C37.7822 27.2396 37.3817 27.7034 37.1742 28.2602C36.9668 28.8169 36.9661 29.4297 37.1724 29.9869C37.3787 30.5441 37.7783 31.0087 38.2983 31.2961C38.8184 31.5835 39.4243 31.6746 40.0059 31.5528C40.5874 31.4311 41.1059 31.1045 41.467 30.6326C41.828 30.1607 42.0075 29.5748 41.973 28.9816C41.9384 28.3885 41.6919 27.8275 41.2785 27.4007C40.9348 27.0467 40.4936 26.8029 40.011 26.7002M33.1245 39.7007L27 31.1792L17.907 43.8212H30.168C31.155 42.4472 32.143 41.0737 33.132 39.7007M37.5645 35.0867L31.2825 43.8227H43.848C41.754 40.9077 39.6595 37.9957 37.5645 35.0867V35.0867Z" fill="white"/>
</svg>
