<svg width="50" height="54" viewBox="0 0 50 54" fill="none" xmlns="http://www.w3.org/2000/svg">
<path d="M25 39.0798V43.1198" stroke="#0A1128" stroke-width="1.71429" stroke-linecap="round" stroke-linejoin="round"/>
<path d="M25 19.0398V22.7998" stroke="#0A1128" stroke-width="1.71429" stroke-linecap="round" stroke-linejoin="round"/>
<path d="M25 52.9599C39 52.9599 49 47.9999 49 36.9599C49 24.9599 43 16.9599 31 10.9599L35.72 4.87988C35.9598 4.48097 36.0899 4.02574 36.097 3.56036C36.1042 3.09498 35.9881 2.63597 35.7607 2.22987C35.5333 1.82377 35.2026 1.48502 34.802 1.24794C34.4015 1.01086 33.9454 0.883882 33.48 0.879883H16.52C16.0546 0.883882 15.5985 1.01086 15.198 1.24794C14.7974 1.48502 14.4667 1.82377 14.2393 2.22987C14.0119 2.63597 13.8958 3.09498 13.903 3.56036C13.9101 4.02574 14.0402 4.48097 14.28 4.87988L19 10.9999C7 17.0399 1 25.0399 1 37.0399C1 47.9999 11 52.9599 25 52.9599Z" stroke="#0A1128" stroke-width="1.71429" stroke-linecap="round" stroke-linejoin="round"/>
<path d="M21 37.2399C21.4881 37.8192 22.1023 38.2791 22.7957 38.5842C23.4891 38.8893 24.2431 39.0315 25 38.9999C26.1568 39.0788 27.2992 38.706 28.1868 37.9601C29.0745 37.2141 29.6384 36.153 29.76 34.9999C29.6384 33.8468 29.0745 32.7857 28.1868 32.0397C27.2992 31.2938 26.1568 30.921 25 30.9999C23.8432 31.0788 22.7008 30.706 21.8131 29.9601C20.9254 29.2141 20.3615 28.153 20.24 26.9999C20.3518 25.8427 20.913 24.7756 21.803 24.0277C22.693 23.2797 23.8409 22.9107 25 22.9999C25.7435 22.9544 26.4879 23.0743 27.1796 23.351C27.8712 23.6276 28.4929 24.0542 29 24.5999" stroke="#0A1128" stroke-width="1.71429" stroke-linecap="round" stroke-linejoin="round"/>
</svg>
