<svg width="54" height="30" viewBox="0 0 54 30" fill="none" xmlns="http://www.w3.org/2000/svg">
<path d="M1 1H17" stroke="#0A1128" stroke-width="1.71429" stroke-linecap="round" stroke-linejoin="round"/>
<path d="M1 13H13" stroke="#0A1128" stroke-width="1.71429" stroke-linecap="round" stroke-linejoin="round"/>
<path d="M1 25H9" stroke="#0A1128" stroke-width="1.71429" stroke-linecap="round" stroke-linejoin="round"/>
<path d="M19 29H49C50.0609 29 51.0783 28.5786 51.8284 27.8284C52.5786 27.0783 53 26.0609 53 25V5C53 3.93913 52.5786 2.92172 51.8284 2.17157C51.0783 1.42143 50.0609 1 49 1H27" stroke="#0A1128" stroke-width="1.71429" stroke-linecap="round" stroke-linejoin="round"/>
<path d="M31 21C34.3137 21 37 18.3137 37 15C37 11.6863 34.3137 9 31 9C27.6863 9 25 11.6863 25 15C25 18.3137 27.6863 21 31 21Z" stroke="#0A1128" stroke-width="1.71429" stroke-linecap="round" stroke-linejoin="round"/>
</svg>
