<svg width="50" height="54" viewBox="0 0 50 54" fill="none" xmlns="http://www.w3.org/2000/svg">
<path d="M25 52.9599C39 52.9599 49 47.9999 49 36.9599C49 24.9599 43 16.9599 31 10.9599L35.72 4.87988C35.9598 4.48097 36.0899 4.02574 36.097 3.56036C36.1042 3.09498 35.9881 2.63597 35.7607 2.22987C35.5333 1.82377 35.2026 1.48502 34.802 1.24794C34.4015 1.01086 33.9454 0.883882 33.48 0.879883H16.52C16.0546 0.883882 15.5985 1.01086 15.198 1.24794C14.7974 1.48502 14.4667 1.82377 14.2393 2.22987C14.0119 2.63597 13.8958 3.09498 13.903 3.56036C13.9101 4.02574 14.0402 4.48097 14.28 4.87988L19 10.9999C7 17.0399 1 25.0399 1 37.0399C1 47.9999 11 52.9599 25 52.9599Z" stroke="#0A1128" stroke-width="1.71429" stroke-linecap="round" stroke-linejoin="round"/>
</svg>
