<svg width="30" height="24" viewBox="0 0 30 24" fill="none" xmlns="http://www.w3.org/2000/svg">
<path d="M26.0866 6.03423C26.1042 6.28952 26.1042 6.54481 26.1042 6.80246C26.1042 14.6531 20.1393 23.7072 9.23226 23.7072V23.7025C6.01027 23.7072 2.85521 22.7825 0.142822 21.0389C0.611326 21.0954 1.08218 21.1236 1.5542 21.1248C4.22432 21.1272 6.81811 20.2295 8.91875 18.5766C6.38131 18.5283 4.15622 16.8707 3.3789 14.4507C4.26776 14.6225 5.18364 14.5872 6.05606 14.3483C3.28966 13.7883 1.2994 11.3531 1.2994 8.52481C1.2994 8.49893 1.2994 8.47423 1.2994 8.44952C2.12369 8.90952 3.0466 9.16481 3.99065 9.19305C1.38512 7.44834 0.581971 3.9754 2.15539 1.26011C5.16602 4.97187 9.608 7.22834 14.3764 7.46717C13.8985 5.40364 14.5514 3.24128 16.0919 1.7907C18.4802 -0.458716 22.2364 -0.343422 24.4815 2.04834C25.8095 1.78599 27.0823 1.29775 28.2471 0.60599C27.8045 1.98128 26.878 3.14952 25.6404 3.89187C26.8158 3.75305 27.9642 3.43776 29.0456 2.95658C28.2495 4.15187 27.2467 5.19305 26.0866 6.03423Z" fill="#1D9BF0"/>
</svg>
