<svg width="23" height="23" viewBox="0 0 23 23" fill="none" xmlns="http://www.w3.org/2000/svg">
<path d="M14.3337 8.72031C14.3852 8.94171 14.413 9.17292 14.413 9.40986C14.413 10.2494 14.0724 11.0097 13.5226 11.5602C13.4151 11.667 13.2999 11.7662 13.1775 11.8557C13.3732 11.9149 13.5651 11.9845 13.7531 12.0649C15.5694 12.8433 16.9928 14.6067 16.9928 17.3258C16.9928 17.5903 16.7778 17.8055 16.5131 17.8055C16.2486 17.8055 16.0334 17.5905 16.0334 17.3258C16.0334 15.0486 14.8667 13.5831 13.3782 12.9451C12.7968 12.6966 12.1678 12.5703 11.542 12.569C10.9161 12.5677 10.2885 12.6906 9.71159 12.9385C8.24874 13.5675 7.10851 15.0226 7.10851 17.3258C7.10851 17.5903 6.89352 17.8055 6.62879 17.8055C6.36423 17.8055 6.14907 17.5905 6.14907 17.3258C6.14907 14.578 7.54358 12.828 9.3334 12.0587C9.44346 12.0117 9.55481 11.9679 9.66759 11.9286C9.50732 11.8199 9.35859 11.6961 9.22205 11.5604C8.67222 11.01 8.33161 10.2497 8.33161 9.41011C8.33161 9.17315 8.35873 8.9421 8.41023 8.72056C8.32327 8.70644 8.23904 8.69152 8.15722 8.67676C7.12447 8.48488 6.4858 8.12632 6.4858 7.64787C6.4858 7.28545 6.79545 7.00724 7.33886 6.82307C7.64594 6.71879 8.05343 6.62734 8.53442 6.55595V4.46609C8.53442 4.08875 8.93551 3.81971 9.58446 3.68893C10.039 3.59813 10.6546 3.5415 11.3228 3.5415C11.9904 3.5415 12.6066 3.59813 13.0611 3.68893C13.7094 3.81969 14.1111 4.08874 14.1111 4.46609L14.1671 6.55015C14.6603 6.62219 15.08 6.71428 15.395 6.81985C15.9448 7.00403 16.2583 7.28334 16.2583 7.64785C16.2583 8.12626 15.6196 8.48485 14.5862 8.67674C14.505 8.6915 14.4208 8.70642 14.3332 8.72054L14.3337 8.72031ZM12.5613 14.3102L12.9367 14.5175C12.9598 14.4461 12.9708 14.3758 12.9708 14.307C12.9708 14.2394 12.9599 14.1711 12.938 14.1022L12.5613 14.3102ZM12.8831 15.5818L11.5711 14.8574L10.259 15.5818C10.0453 15.6989 9.77996 15.6359 9.6404 15.4427C9.35001 15.0764 9.21218 14.6914 9.21218 14.307C9.21218 13.8975 9.36797 13.5061 9.65966 13.1533C9.81287 12.9684 10.0762 12.9279 10.2757 13.0483L11.5711 13.7636L12.8665 13.0483C13.066 12.928 13.3293 12.9684 13.4825 13.1533C13.7742 13.5061 13.93 13.8975 13.93 14.307C13.93 14.6914 13.7922 15.0764 13.5018 15.4427C13.3621 15.6359 13.0969 15.6989 12.8832 15.5818H12.8831ZM10.2054 14.5176L10.5808 14.3103L10.2041 14.1024C10.1823 14.1712 10.1706 14.2396 10.1706 14.3071C10.1706 14.376 10.1822 14.4462 10.2054 14.5176H10.2054ZM9.32143 8.83453C9.26993 9.01742 9.24282 9.21059 9.24282 9.41019C9.24282 9.99866 9.48106 10.5312 9.86612 10.916C10.2512 11.3011 10.7837 11.54 11.372 11.54C11.9604 11.54 12.4936 11.3011 12.8791 10.9173C13.2629 10.531 13.5017 9.9985 13.5017 9.41019C13.5017 9.2106 13.474 9.01744 13.4231 8.83453C12.8045 8.89309 12.1071 8.92662 11.3726 8.92662C10.6373 8.92662 9.94005 8.89309 9.32142 8.83453H9.32143ZM12.8831 4.57868C12.4942 4.5007 11.9425 4.45177 11.3232 4.45177C10.7031 4.45177 10.152 4.5007 9.76266 4.57868C9.09956 4.712 9.44532 5.78068 9.44532 6.95377C9.44532 7.18175 9.27478 7.37812 9.04359 7.40572C8.44678 7.47648 7.95872 7.57242 7.63109 7.68328C7.78944 7.70061 8.02705 7.729 8.3213 7.78307C9.09333 7.92666 10.1722 8.01554 11.3731 8.01554C12.5732 8.01554 13.6517 7.92666 14.4243 7.78307C14.7192 7.729 14.9562 7.70061 15.1165 7.68328L15.1081 7.68071C14.7752 7.56937 14.2794 7.47279 13.6736 7.40252C13.4529 7.37604 13.2777 7.19202 13.2719 6.96342C13.2384 5.79033 13.5527 4.7133 12.8837 4.57871L12.8831 4.57868ZM11.4995 0C14.6742 0 17.5502 1.28768 19.6309 3.36854C21.7117 5.4494 22.9988 8.32466 22.9988 11.4999C22.9988 17.8504 17.85 23 11.4995 23C8.32479 23 5.44964 21.7123 3.36854 19.6315C1.28768 17.5506 0 14.6753 0 11.5001C0 5.14957 5.14875 0 11.4993 0H11.4995ZM18.9532 4.04651C17.0456 2.13955 14.4103 0.959394 11.4995 0.959394C5.678 0.959394 0.959271 5.67854 0.959271 11.5C0.959271 14.4108 2.13881 17.0468 4.04639 18.9537C5.95335 20.8607 8.58851 22.0409 11.4993 22.0409C17.3208 22.0409 22.0399 17.3217 22.0399 11.5002C22.0399 8.58941 20.8597 5.95347 18.9528 4.04651H18.9532Z" fill="#373D4A"/>
</svg>
