<svg width="48" height="48" viewBox="0 0 48 48" fill="none" xmlns="http://www.w3.org/2000/svg">
<path d="M12.0001 46.2849H5.14293C4.23361 46.2849 3.36154 45.9237 2.71856 45.2807C2.07558 44.6377 1.71436 43.7656 1.71436 42.8563V15.4277H46.2858V42.8563C46.2858 43.7656 45.9246 44.6377 45.2816 45.2807C44.6386 45.9237 43.7665 46.2849 42.8572 46.2849H36.0001" stroke="#7C859D" stroke-width="1.71429" stroke-linecap="round" stroke-linejoin="round"/>
<path d="M15.4287 34.2853L24.0001 25.7139L32.5716 34.2853" stroke="#7C859D" stroke-width="1.71429" stroke-linecap="round" stroke-linejoin="round"/>
<path d="M24 25.7139V46.2853" stroke="#7C859D" stroke-width="1.71429" stroke-linecap="round" stroke-linejoin="round"/>
<path d="M38.7086 3.42815C38.4154 2.91983 37.9967 2.49527 37.4924 2.19511C36.9881 1.89496 36.4153 1.72926 35.8286 1.71387H12.1715C11.5849 1.72926 11.012 1.89496 10.5078 2.19511C10.0035 2.49527 9.58471 2.91983 9.2915 3.42815L1.71436 15.4282H46.2858L38.7086 3.42815Z" stroke="#7C859D" stroke-width="1.71429" stroke-linecap="round" stroke-linejoin="round"/>
</svg>
