<svg width="24" height="25" viewBox="0 0 24 25" fill="none" xmlns="http://www.w3.org/2000/svg">
<path d="M4.28575 13.3572H6.00003C6.45469 13.3572 6.89073 13.5378 7.21222 13.8593C7.53371 14.1808 7.71432 14.6168 7.71432 15.0715V21.9286C7.71432 22.3833 7.53371 22.8193 7.21222 23.1408C6.89073 23.4623 6.45469 23.6429 6.00003 23.6429H2.57146C2.11681 23.6429 1.68077 23.4623 1.35928 23.1408C1.03779 22.8193 0.857178 22.3833 0.857178 21.9286V12.5C0.857178 9.54477 2.03115 6.71054 4.12085 4.62085C6.21054 2.53115 9.04477 1.35718 12 1.35718C14.9553 1.35718 17.7895 2.53115 19.8792 4.62085C21.9689 6.71054 23.1429 9.54477 23.1429 12.5V21.9286C23.1429 22.3833 22.9623 22.8193 22.6408 23.1408C22.3193 23.4623 21.8833 23.6429 21.4286 23.6429H18C17.5454 23.6429 17.1093 23.4623 16.7879 23.1408C16.4664 22.8193 16.2857 22.3833 16.2857 21.9286V15.0715C16.2857 14.6168 16.4664 14.1808 16.7879 13.8593C17.1093 13.5378 17.5454 13.3572 18 13.3572H19.7143" stroke="black" stroke-width="1.71429" stroke-linecap="round" stroke-linejoin="round"/>
</svg>
